<svg xmlns="http://www.w3.org/2000/svg" id="Layer_1" height="90" width="90" x="0" y="0" viewBox="0 0 2834.65 2834.65" style="enable-background:new 0 0 2834.65 2834.65" xml:space="preserve"><style>.st0{fill:#fff}</style><path id="path22" class="st0" d="M1849.99 1417.32c0-238.6-193.4-432.02-431.99-432.02-238.6 0-432.02 193.41-432.02 432.02 0 238.59 193.41 432.02 432.02 432.02 238.6 0 431.99-193.43 431.99-432.02"></path><path id="path24" class="st0" d="M1418.03 0C1283 0 1152.57 19.28 1028.85 54.56v766.11c111.89-73.13 245.5-115.79 389.16-115.79 393.44 0 712.43 318.97 712.43 712.45s-318.99 712.45-712.43 712.45c-393.47 0-712.46-318.98-712.46-712.45 0-12.66.36-25.23 1-37.73l-1 .79V192.3C284.14 437.93.7 894.38.7 1417.32c0 782.76 634.57 1417.33 1417.33 1417.33 782.75 0 1417.2-634.57 1417.2-1417.33C2835.23 634.57 2200.78 0 1418.03 0"></path></svg>