<svg xmlns="http://www.w3.org/2000/svg" width="86" height="408" viewBox="0 0 86 408" fill="none"><path d="M14.2604 127.077C11.8271 128.211 10.6445 130.424 10.6445 133.843C10.6445 137.365 11.7443 139.993 14.2096 142.364L15.6613 143.761L11.5153 143.761L11.5153 153.93L37.4616 153.93L37.4616 143.473L24.079 143.473C23.166 143.473 21.4791 143.371 20.4268 142.677C19.5139 142.052 19.0516 141.092 19.0516 139.822C19.0516 138.477 19.5211 137.548 20.4171 137.078C21.0498 136.708 21.9598 136.544 23.3674 136.544L37.4621 136.544L37.4621 126.115L20.7782 126.115C18.6779 126.115 16.0388 126.224 14.2604 127.077Z" fill="white"></path><path d="M14.2636 196.015C11.8302 197.149 10.6477 199.362 10.6477 202.781C10.6477 206.303 11.7475 208.93 14.2128 211.302L15.6644 212.698L1.28125 212.698L1.28125 222.867L37.4653 222.867L37.4653 212.411L24.0826 212.411C23.1697 212.411 21.4837 212.308 20.4304 211.615C19.5175 210.99 19.0552 210.03 19.0552 208.759C19.0552 207.414 19.5248 206.485 20.4208 206.015C21.0534 205.646 21.9634 205.482 23.3711 205.482L37.4658 205.482L37.4658 195.053L20.7819 195.053C18.6815 195.053 16.042 195.162 14.2636 196.015Z" fill="white"></path><path d="M1.28125 260.517L1.28125 271.207L37.4638 271.207L37.4638 260.517L1.28125 260.517Z" fill="white"></path><path d="M11.5156 155.72L11.5156 166.41L37.4658 166.41L37.4658 155.72L11.5156 155.72Z" fill="white"></path><path d="M11.5156 304.42L11.5156 315.109L37.4658 315.109L37.4658 304.42L11.5156 304.42Z" fill="white"></path><path d="M10.2305 358.446C10.2305 367.907 15.6969 373.785 24.498 373.785C33.299 373.785 38.2858 368.33 38.2858 358.819C38.2858 354.196 36.8544 350.177 34.2555 347.503C31.8711 345.05 28.6453 343.812 24.6664 343.823C15.3576 343.823 10.2305 349.016 10.2305 358.446ZM30.9156 358.645C30.9156 359.992 30.2408 363.122 23.9902 363.122C18.4061 363.122 17.5726 360.317 17.5726 358.645C17.5726 355.865 19.8457 354.455 24.3285 354.455C29.7732 354.455 30.9156 356.734 30.9156 358.645Z" fill="white"></path><path d="M30.1034 271.603L32.0043 276.068L31.254 276.068L22.2506 275.525C20.9001 275.404 19.5995 275.344 18.3492 275.344C13.1974 275.344 10.2461 277.034 10.2461 284.455C10.2461 285.481 10.4963 287.11 11.0462 289.222C11.5966 291.393 12.8968 293.867 14.8475 296.643C16.8481 299.419 19.749 301.892 23.5508 304.004L23.8509 303.823L21.2002 292.661C19.2994 293.385 17.6991 293.747 16.3486 293.747C14.1979 293.747 13.1475 292.36 13.1475 290.369C13.1475 287.654 15.7537 285.633 20.7055 285.633L23.1563 292.963C25.6071 299.298 28.8028 303.461 33.0044 303.461C36.2553 303.461 38.3561 300.625 38.3561 296.462C38.3561 291.575 35.6551 287.925 31.3034 285.572L31.3034 285.27C31.6534 285.331 32.1036 285.331 32.7541 285.331C36.8057 285.331 38.3057 284.214 38.3057 281.318C38.3057 278.422 36.4552 276.492 31.9036 272.69L30.3532 271.363L30.103 271.604L30.1034 271.603ZM29.6034 285.752C31.4041 286.898 32.3044 289.161 32.3044 290.548C32.3044 291.815 31.4041 293.203 29.5536 293.203C27.3526 293.203 24.607 290.518 21.8561 285.631L29.6034 285.752Z" fill="white"></path><path d="M2.94922 305.299L2.94922 314.23C2.94922 314.714 3.32913 315.105 3.79777 315.105L7.92481 315.105C8.39345 315.105 8.77336 314.714 8.77336 314.23L8.77336 305.299C8.77336 304.816 8.39345 304.424 7.92481 304.424L3.79777 304.424C3.32913 304.424 2.94922 304.816 2.94922 305.299Z" fill="white"></path><path d="M2.94922 156.6L2.94922 165.531C2.94922 166.014 3.32913 166.406 3.79777 166.406L7.92481 166.406C8.39345 166.406 8.77336 166.014 8.77336 165.531L8.77336 156.6C8.77336 156.116 8.39345 155.724 7.92481 155.724L3.79777 155.724C3.32913 155.724 2.94922 156.116 2.94922 156.6Z" fill="white"></path><path d="M22.4441 374.853C21.3511 375.289 20.3617 375.996 19.504 376.954C18.624 377.935 17.8514 379.238 17.2067 380.828C16.545 382.46 15.967 384.476 15.4897 386.816L14.4379 392.15C14.1305 393.698 13.7525 394.744 13.2853 395.35C12.7548 396.04 12.0341 396.404 11.2015 396.404C10.2489 396.404 9.42792 395.94 8.82769 395.062C8.272 394.248 8.0019 393.024 8.0019 391.321C8.0019 389.753 8.30492 388.506 8.90321 387.613C9.43228 386.824 10.3113 386.227 11.5219 385.833L11.5219 374.998C11.5219 374.998 6.92488 374.906 3.68462 379.026C3.52585 379.228 3.37337 379.442 3.22477 379.662C3.22331 379.664 3.22138 379.667 3.21993 379.669C3.1236 379.812 3.02824 379.957 2.93627 380.107C2.92998 380.117 2.9232 380.127 2.91691 380.137C2.34282 381.073 1.9033 382.088 1.56446 383.111C1.55768 383.131 1.55091 383.151 1.54413 383.171C1.48411 383.354 1.42651 383.538 1.37278 383.721C1.35922 383.768 1.34373 383.812 1.33018 383.858C1.30259 383.953 1.27935 384.053 1.25321 384.149C1.24934 384.165 1.24499 384.18 1.24111 384.196C1.17141 384.457 1.10655 384.723 1.04604 384.997C1.03394 385.05 1.0228 385.103 1.01119 385.156C0.986985 385.271 0.961814 385.384 0.939064 385.501C0.353358 388.453 0.470499 390.932 0.470499 390.932C0.470499 393.445 0.727048 395.741 1.23288 397.757C1.73049 399.738 2.48416 401.438 3.47067 402.811C4.4441 404.166 5.65133 405.226 7.05945 405.961C8.46611 406.696 10.125 407.069 11.9895 407.069C14.8711 407.069 17.1074 406.128 18.8263 404.191C20.5771 402.221 21.8923 398.96 22.7351 394.503L23.737 389.1C24.0483 387.579 24.4491 386.542 24.9632 385.933C25.5285 385.26 26.3142 384.904 27.2353 384.904C28.4009 384.904 29.3429 385.402 29.9596 386.343C30.5274 387.209 30.8028 388.474 30.8028 390.211C30.8028 392.316 30.3729 393.934 29.5263 395.021C28.7906 395.965 27.7721 396.604 26.4923 396.927L26.4923 407.824C28.1347 407.631 29.6454 407.224 30.9935 406.609C32.5367 405.906 33.8639 404.869 34.9395 403.528C36.0228 402.174 36.866 400.449 37.4464 398.4C38.0355 396.313 38.3347 393.819 38.3347 390.988C38.3347 385.419 37.2659 381.165 35.1588 378.343C33.0696 375.546 30.1861 374.186 26.3413 374.186C24.8697 374.186 23.5584 374.41 22.4432 374.853L22.4441 374.853Z" fill="white"></path><path d="M27.8388 325.363C28.622 325.535 29.2706 325.835 29.7736 326.257C30.4909 326.86 30.8545 327.743 30.8545 328.882C30.8545 330.263 30.2712 331.373 29.1685 332.09C28.151 332.754 26.5435 333.076 24.2539 333.076C22.0785 333.076 20.5194 332.766 19.4869 332.128C18.3557 331.43 17.7579 330.327 17.7579 328.937C17.7579 327.833 18.1059 326.985 18.7923 326.419C19.2425 326.048 19.8175 325.765 20.5068 325.575L20.5068 316.088C20.5068 316.088 18.7487 316.186 16.6552 317.123C15.4281 317.672 14.3255 318.448 13.3777 319.426C12.442 320.393 11.684 321.686 11.1268 323.27C10.5605 324.878 10.2734 326.841 10.2734 329.105C10.2734 333.56 11.5213 337.086 13.9813 339.584C16.4466 342.084 19.9913 343.352 24.5177 343.352C26.5444 343.352 28.4395 343.065 30.1531 342.501C31.8332 341.948 33.2907 341.083 34.4863 339.93C35.6814 338.779 36.6312 337.299 37.3088 335.529C37.9918 333.743 38.3384 331.6 38.3384 329.16C38.3384 326.896 38.0514 324.933 37.486 323.325C36.9288 321.74 36.1427 320.407 35.1495 319.365C34.1557 318.321 32.9519 317.494 31.5742 316.907C30.4178 316.416 29.1646 316.064 27.8388 315.855L27.8388 325.363L27.8388 325.363Z" fill="white"></path><path d="M12.7144 170.652C11.116 172.476 10.1992 175.934 10.1992 180.139C10.1992 192.212 16.8046 192.757 19.4456 193.048L19.4456 184.259C17.6067 183.837 16.6763 182.696 16.6763 180.859C16.6763 178.754 17.7432 177.687 19.8479 177.687L21.4665 177.687L21.5764 178.655C21.9032 181.549 22.4487 186.393 23.9783 189.723C25.414 192.893 27.3957 194.246 30.6036 194.246C35.3865 194.246 38.2419 191.356 38.2419 186.516C38.2419 182.845 37.2443 180.483 34.9053 178.617L33.3951 177.411L37.4645 176.903L37.4645 168.192L20.7172 168.192C16.4832 168.192 14.2406 168.88 12.7144 170.652L12.7144 170.652ZM26.964 177.687C29.9467 177.687 31.8742 179.478 31.8742 182.248C31.8742 184.119 30.6089 184.957 29.3547 184.957C28.0037 184.957 27.3425 184.184 27.0235 183.529C26.5118 182.454 26.0467 180.562 25.8085 178.593L25.6986 177.687L26.964 177.687Z" fill="white"></path><path d="M28.188 236.516C29.1454 237.59 29.63 239.007 29.63 240.727C29.63 241.625 29.4935 242.513 29.2239 243.365C28.9325 244.29 28.3714 245.108 27.5568 245.795C26.7736 246.457 25.6941 246.985 24.3504 247.365C23.071 247.728 21.3996 247.914 19.3859 247.921C17.3723 247.914 15.7008 247.728 14.4215 247.365C13.0773 246.985 11.9978 246.457 11.2151 245.795C10.4004 245.108 9.8399 244.29 9.54802 243.365C9.2784 242.513 9.1419 241.625 9.1419 240.727C9.1419 239.007 9.62644 237.59 10.5839 236.516C11.4145 235.581 12.6252 234.955 14.1886 234.649L14.1886 223.65C12.4209 223.816 10.7523 224.224 9.21838 224.866C7.47433 225.596 5.93988 226.68 4.65762 228.087C3.37052 229.499 2.33803 231.294 1.58823 233.42C0.835527 235.564 0.453124 238.135 0.453124 241.06C0.453124 244.312 0.912008 247.145 1.81719 249.482C2.71414 251.799 3.98043 253.725 5.58265 255.208C7.18922 256.696 9.14335 257.817 11.3913 258.538C13.6707 259.27 16.2193 259.641 18.9653 259.641C19.1066 259.641 19.2456 259.636 19.3859 259.634C19.5263 259.636 19.6652 259.641 19.8066 259.641C22.5531 259.641 25.1016 259.27 27.3806 258.538C29.6285 257.817 31.5822 256.697 33.1892 255.208C34.7914 253.725 36.0577 251.799 36.9547 249.482C37.8599 247.145 38.3187 244.312 38.3187 241.06C38.3187 238.134 37.9363 235.564 37.1836 233.42C36.4338 231.294 35.4014 229.499 34.1143 228.087C32.832 226.679 31.2975 225.596 29.5535 224.866C28.0195 224.224 26.351 223.816 24.5832 223.65L24.5832 234.649C26.1472 234.955 27.3578 235.581 28.188 236.516Z" fill="white"></path><path d="M50.6445 126.99L84.8594 126.99L84.8594 145.052C84.8594 149.859 84.4964 152.861 83.7098 154.512C82.4885 157.224 79.8466 158.843 76.6421 158.843C73.0635 158.843 70.8741 157.196 69.3223 153.336L68.4384 151.138L67.9422 153.462C67.0119 157.82 64.4657 159.938 60.1577 159.938C57.0578 159.938 54.2933 158.506 52.5716 156.007C51.1843 154.011 50.644 151.101 50.644 145.628L50.6445 126.99ZM64.35 144.258L64.35 137.923L58.4528 137.923L58.4528 144.203C58.4528 147.185 59.3507 148.457 61.4544 148.457C64.0499 148.457 64.35 146.061 64.35 144.258M77.0768 144.313L77.0768 137.923L71.6293 137.923L71.6293 144.258C71.6293 145.79 71.9187 147.828 74.4193 147.828C76.1828 147.828 77.0768 146.645 77.0768 144.313M49.918 126.241L49.918 145.628C49.918 151.049 50.4209 154.198 51.982 156.443C53.7551 159.017 56.6652 160.687 60.1581 160.687C64.762 160.687 67.646 158.332 68.6514 153.623C70.424 158.031 73.0437 159.592 76.6421 159.592C80.2672 159.592 83.0984 157.648 84.3681 154.827C85.2941 152.883 85.585 149.488 85.585 145.052L85.585 126.24L49.918 126.241ZM63.624 144.258C63.624 146.86 62.9095 147.709 61.4544 147.709C60.131 147.709 59.1789 147.243 59.1789 144.204L59.1789 138.673L63.624 138.673L63.624 144.258ZM76.3507 144.313C76.3507 146.339 75.6895 147.079 74.4193 147.079C73.123 147.079 72.3553 146.504 72.3553 144.258L72.3553 138.672L76.3507 138.672L76.3507 144.313L76.3507 144.313Z" fill="white"></path><path d="M50.6714 162.365L75.8901 162.365L75.8901 172.121L70.2044 172.121L72.5782 173.52C74.8843 174.88 76.2609 177.237 76.2609 179.825C76.2609 180.381 76.2362 180.731 76.1041 181.321L67.9289 181.321C68.1782 180.514 68.2672 179.811 68.2672 178.867C68.2672 176.767 67.6593 175.15 66.4671 174.067C65.1688 172.855 63.5603 172.641 60.6613 172.641L50.6714 172.641L50.6714 162.365ZM49.9453 161.616L49.9453 173.391L60.6613 173.391C63.4925 173.391 64.8948 173.61 65.9796 174.622C67.0644 175.608 67.5407 177.087 67.5407 178.867C67.5407 180.044 67.4085 180.783 66.879 182.07L76.669 182.07C76.9338 181.057 76.9865 180.619 76.9865 179.825C76.9865 176.676 75.2139 174.212 72.9384 172.87L76.6162 172.87L76.6162 161.616L49.9453 161.616Z" fill="white"></path><path d="M50.625 218.431L75.8437 210.042L75.8437 221.064L73.5493 221.591C69.2417 222.582 64.787 223.606 60.3327 224.573L56.6413 225.375L60.3574 226.045C64.8146 226.848 67.9885 227.638 73.2458 228.948C74.0595 229.151 74.9211 229.365 75.8433 229.594L75.8433 239.977L50.6245 231.847L50.6245 218.431M49.8984 217.886L49.8984 232.398L76.5693 240.996L76.5693 229.003C69.3724 227.223 65.8006 226.265 60.4818 225.306C65.9061 224.129 71.1978 222.897 76.5693 221.665L76.5693 209.015L49.8984 217.886Z" fill="white"></path><path d="M50.0352 253.789C50.0352 244.525 54.7992 239.423 63.4493 239.423C71.5983 239.423 76.8634 244.804 76.8634 253.132C76.8634 262.299 71.7997 267.053 61.8098 267.27L61.8098 249.698L61.0319 249.756C57.1735 250.041 56.7567 252.767 56.7567 253.926C56.7567 254.952 57.1149 256.683 59.3547 257.46L56.7572 266.226C52.2957 263.614 50.0352 259.434 50.0352 253.789ZM70.7459 253.843C70.7459 252.546 70.2662 250.295 67.054 249.79L66.2185 249.658L66.2185 257.84L67.0569 257.705C69.4012 257.327 70.7459 255.919 70.7459 253.843ZM49.3086 253.789C49.3086 260.744 52.5416 264.906 57.1933 267.315L60.2685 256.938C58.1924 256.5 57.4828 255.268 57.4828 253.926C57.4828 252.529 58.1135 250.722 61.0837 250.503L61.0837 268.027C71.4129 268.027 77.5895 263.373 77.5895 253.132C77.5895 244.506 72.0437 238.674 63.4493 238.674C54.5131 238.674 49.3086 244.041 49.3086 253.789ZM66.9446 250.53C69.2052 250.886 70.0198 252.228 70.0198 253.843C70.0198 255.377 69.1524 256.609 66.9446 256.965L66.9446 250.53Z" fill="white"></path><path d="M50.5977 274.115L84.8125 274.115L84.8125 292.177C84.8125 296.984 84.4495 299.985 83.6629 301.637C82.4416 304.349 79.7997 305.968 76.5952 305.968C73.0166 305.968 70.8273 304.321 69.2754 300.461L68.3915 298.263L67.8953 300.586C66.965 304.945 64.4189 307.063 60.1108 307.063C57.0109 307.063 54.2465 305.631 52.5247 303.131C51.1374 301.136 50.5972 298.226 50.5972 292.752L50.5977 274.115ZM64.3032 291.383L64.3032 285.048L58.4059 285.048L58.4059 291.328C58.4059 294.31 59.3039 295.583 61.4076 295.583C64.0031 295.583 64.3032 293.186 64.3032 291.383M77.0299 291.438L77.0299 285.048L71.5824 285.048L71.5824 291.383C71.5824 292.915 71.8714 294.952 74.3725 294.952C76.1359 294.952 77.0299 293.77 77.0299 291.438ZM49.8711 273.365L49.8711 292.752C49.8711 298.174 50.374 301.322 51.9351 303.568C53.7082 306.142 56.6183 307.812 60.1113 307.812C64.7151 307.812 67.5991 305.457 68.6045 300.748C70.3771 305.156 72.9968 306.717 76.5952 306.717C80.2203 306.717 83.0516 304.773 84.3212 301.952C85.2472 300.008 85.5381 296.613 85.5381 292.177L85.5381 273.365L49.8711 273.365ZM63.5771 291.383C63.5771 293.984 62.8626 294.833 61.4076 294.833C60.0842 294.833 59.132 294.368 59.132 291.328L59.132 285.797L63.5771 285.797L63.5771 291.383ZM76.3038 291.437C76.3038 293.464 75.6426 294.203 74.3725 294.203C73.0762 294.203 72.3085 293.627 72.3085 291.382L72.3085 285.797L76.3038 285.797L76.3038 291.437Z" fill="white"></path><path d="M50.5972 309.491L75.1547 309.491L75.1547 319.602L50.5972 319.602L50.5972 309.491ZM79.1999 309.491L84.8125 309.491L84.8125 319.602L79.1999 319.602L79.1999 309.491ZM49.8711 308.742L49.8711 320.352L75.8808 320.352L75.8808 308.742L49.8711 308.742ZM78.4739 308.742L78.4739 320.352L85.5386 320.352L85.5386 308.742L78.4739 308.742Z" fill="white"></path><path d="M50.0322 333.634C50.0322 328.929 51.6078 324.548 54.3756 321.497L59.4621 326.18C57.4576 327.862 56.2025 330.498 56.2025 333.141C56.2025 335.64 57.583 335.834 58.0056 335.834C59.328 335.834 59.8561 334.759 60.2264 333.607L61.6287 329.467C63.1724 324.788 65.4702 322.609 68.86 322.609C74.019 322.609 76.8604 326.874 76.8604 334.619C76.8604 338.804 75.5574 342.772 73.2649 345.634L68.3111 341.108C70.0498 339.391 71.0668 337.25 71.0668 335.249C71.0668 333.069 70.0275 332.611 69.1557 332.611C67.8561 332.611 67.477 333.701 66.7214 335.872L65.4818 339.433C63.9933 343.742 61.7154 345.836 58.5162 345.836C53.4409 345.836 50.0308 340.932 50.0308 333.634M49.3047 333.634C49.3047 341.054 52.7521 346.585 58.5162 346.585C62.0445 346.585 64.5766 344.285 66.1653 339.685L67.4044 336.125C68.1857 333.88 68.4282 333.36 69.1553 333.36C69.8286 333.36 70.3402 333.743 70.3402 335.249C70.3402 337.084 69.3169 339.329 67.2161 341.109L73.3302 346.695C75.9969 343.71 77.586 339.274 77.586 334.62C77.586 325.42 73.7344 321.86 68.8595 321.86C64.7925 321.86 62.4226 324.735 60.9409 329.225L59.5405 333.36C59.0826 334.784 58.6247 335.085 58.0051 335.085C57.4397 335.085 56.9281 334.592 56.9281 333.141C56.9281 330.567 58.2481 327.802 60.618 326.241L54.3422 320.463C51.0023 323.804 49.3057 328.76 49.3057 333.634L49.3047 333.634Z" fill="white"></path><path d="M50.0352 361.372C50.0352 352.278 54.8409 347.062 63.2208 347.062C71.6007 347.062 76.8639 352.682 76.8639 361.729C76.8639 370.775 71.9614 375.712 63.0577 375.712C59.2549 375.722 56.1705 374.538 53.8897 372.192C51.4041 369.634 50.0352 365.792 50.0352 361.372M69.8126 361.538C69.8126 359.949 69.0193 357.284 63.7049 357.284C61.7226 357.284 57.1125 357.698 57.1125 361.538C57.1125 364.827 60.5217 365.517 63.382 365.517C67.6489 365.517 69.8126 364.179 69.8126 361.538ZM49.3091 361.372C49.3091 369.287 53.6143 376.487 63.0591 376.461C72.2886 376.461 77.5895 371.148 77.5895 361.729C77.5895 352.364 72.2077 346.313 63.2203 346.313C54.3408 346.313 49.3086 351.953 49.3086 361.372L49.3091 361.372ZM69.0866 361.538C69.0866 363.48 67.5526 364.768 63.382 364.768C59.4263 364.768 57.8386 363.536 57.8386 361.538C57.8386 359.482 59.588 358.033 63.7049 358.033C67.6063 358.033 69.0866 359.537 69.0866 361.538Z" fill="white"></path><path d="M50.6445 378.165L75.8851 378.165L75.8851 387.892L71.5087 387.892L72.8573 389.189C75.2108 391.452 76.2602 393.96 76.2602 397.321C76.2602 400.587 75.1299 402.702 72.7973 403.789C71.1065 404.6 68.5899 404.704 66.5864 404.704L50.6697 404.704L50.646 394.729L64.1196 394.729C65.4459 394.729 66.3071 394.575 66.9068 394.23C67.7733 393.769 68.2128 392.893 68.2128 391.625C68.2128 390.422 67.7747 389.512 66.9 388.914C65.9121 388.263 64.3084 388.165 63.441 388.165L50.644 388.165L50.644 378.164M49.918 377.415L49.918 388.915L63.441 388.915C64.7445 388.915 65.885 389.134 66.5094 389.545C67.1881 390.01 67.4872 390.696 67.4872 391.625C67.4872 392.53 67.2428 393.214 66.5641 393.57C66.0481 393.871 65.2063 393.98 64.1201 393.98L49.9185 393.98L49.9456 405.453L66.5864 405.453C69.1659 405.453 71.4468 405.263 73.1032 404.468C75.6285 403.291 76.9863 400.937 76.9863 397.321C76.9863 393.542 75.6876 390.887 73.3525 388.64L76.6111 388.64L76.6111 377.415L49.9185 377.415L49.918 377.415Z" fill="white"></path><path d="M50.0322 188.345C50.0322 184.525 51.86 182.056 54.6883 182.056C58.2205 182.056 61.3233 185.443 63.911 192.125L65.6822 197.423C62.3727 192.053 59.7888 190.872 58.1585 190.872C55.8902 190.872 54.6661 192.634 54.6661 194.291C54.6661 195.477 55.1864 197.045 56.1739 198.316C52.1524 195.95 50.0322 192.514 50.0322 188.345ZM50.0826 203.574C50.0826 201.443 50.8566 200.288 54.9396 200.288C55.547 200.288 55.9861 200.288 56.2789 200.339L57.1246 200.485L57.1246 199.31C57.3148 199.469 57.5162 199.618 57.7272 199.752L57.8976 199.861L58.0975 199.864L65.8884 199.985L67.1716 200.005L67.16 199.985C73.2199 199.953 75.3826 197.123 75.3826 194.473C75.3826 194.208 75.3662 193.954 75.3347 193.71C75.6551 194.451 75.8986 195.153 76.068 195.821C76.571 197.751 76.8479 199.384 76.8479 200.42C76.8479 203.767 76.2249 206.003 74.9431 207.255C73.8269 208.346 72.1249 208.832 69.4254 208.832C68.1944 208.832 66.8952 208.772 65.5442 208.652L56.4905 208.106L56.4692 208.104L54.5814 208.104L55.0286 209.154L56.0151 211.471C51.5701 207.744 50.0826 206.048 50.0826 203.574ZM64.897 182.025C68.0826 183.939 70.59 186.15 72.3583 188.603C72.9885 189.5 73.5408 190.35 74.0181 191.159C73.3593 190.62 72.4836 190.327 71.4371 190.327C70.1829 190.327 68.7491 190.609 67.0729 191.187L64.897 182.026M49.3057 188.346C49.3057 193.26 52.0217 196.93 56.3975 199.297L56.3975 199.6C56.0456 199.54 55.593 199.54 54.9386 199.54C50.8643 199.54 49.3555 200.662 49.3555 203.575C49.3555 206.487 51.2167 208.429 55.7939 212.251L57.3531 213.586L57.6048 213.343L55.6932 208.853L56.4479 208.853L65.5016 209.399C66.8599 209.52 68.1678 209.581 69.4249 209.581C74.6057 209.581 77.5735 207.882 77.5735 200.42C77.5735 199.388 77.3217 197.75 76.769 195.627C76.2157 193.442 74.9078 190.955 72.9464 188.164C70.9346 185.373 68.0173 182.885 64.1942 180.761L63.8921 180.943L66.5578 192.168C68.4694 191.44 70.0788 191.076 71.4366 191.076C73.5994 191.076 74.6556 192.471 74.6556 194.473C74.6556 197.203 72.0344 199.236 67.055 199.236L64.5901 191.864C62.1253 185.494 58.9117 181.307 54.6869 181.307C51.4176 181.307 49.3047 184.158 49.3047 188.345L49.3057 188.346ZM65.8985 199.236L58.1077 199.115C56.2968 197.962 55.3917 195.687 55.3917 194.292C55.3917 193.017 56.2968 191.622 58.158 191.622C60.3711 191.622 63.1322 194.322 65.8985 199.236Z" fill="white"></path><path d="M43.289 0.000976562L43.2891 405.645L44.1207 405.645L44.1207 0.000976525L43.289 0.000976562Z" fill="white"></path></svg>