<svg xmlns="http://www.w3.org/2000/svg" xmlns:xlink="http://www.w3.org/1999/xlink" id="Layer_1" x="0px" y="0px" viewBox="0 0 1330.567 196.271" style="enable-background:new 0 0 1330.567 196.271;" xml:space="preserve"><style type="text/css">	.st0{fill:#FFFFFF;}	.st1{filter:url(#Adobe_OpacityMaskFilter);}	.st2{mask:url(#SVGID_1_);}	.st3{filter:url(#Adobe_OpacityMaskFilter_00000068652941332877643780000008682964590993855377_);}	.st4{mask:url(#SVGID_00000163770177009804289100000011865960556568484498_);}	.st5{filter:url(#Adobe_OpacityMaskFilter_00000170247529090443228800000016526259886663862933_);}	.st6{mask:url(#SVGID_00000178906356114264609010000017173452036136167337_);}	.st7{filter:url(#Adobe_OpacityMaskFilter_00000170260964947616208940000011665597487074264456_);}	.st8{mask:url(#SVGID_00000106859950557582271900000009851573665463334041_);}	.st9{filter:url(#Adobe_OpacityMaskFilter_00000172402490069860110160000006680019167391729823_);}	.st10{mask:url(#SVGID_00000088820853065322951710000012625466739066176646_);}	.st11{filter:url(#Adobe_OpacityMaskFilter_00000108275074665245408120000009916268858650772104_);}	.st12{mask:url(#SVGID_00000014604887442526125120000018248168612214318521_);}</style><g>	<g>		<g>			<path class="st0" d="M1314.919,73.499c-5.268-11.658-15.545-17.322-31.423-17.322c-16.353,0-28.556,5.269-39.57,17.081    l-6.484,6.955V60.349h-47.222v124.306h48.559V120.54c0-4.374,0.475-12.455,3.699-17.498c2.898-4.374,7.359-6.59,13.258-6.59    c6.246,0,10.559,2.249,12.74,6.542c1.715,3.031,2.479,7.39,2.479,14.134v67.527h48.429v-79.931    C1319.384,94.661,1318.878,82.02,1314.919,73.499z"></path>		</g>	</g>	<g>		<g>			<path class="st0" d="M994.783,73.499c-5.268-11.658-15.545-17.322-31.423-17.322c-16.351,0-28.554,5.269-39.568,17.081    l-6.484,6.955V11.301h-47.222v173.355h48.559V120.54c0-4.374,0.475-12.451,3.697-17.498c2.9-4.374,7.361-6.59,13.26-6.59    c6.246,0,10.559,2.249,12.74,6.542c1.715,3.031,2.479,7.39,2.479,14.134v67.527h48.429v-79.931    C999.25,94.661,998.743,82.02,994.783,73.499z"></path>		</g>	</g>	<g>		<g>			<rect x="645.613" y="11.308" class="st0" width="49.643" height="173.347"></rect>		</g>	</g>	<g>		<g>			<rect x="1132.261" y="60.331" class="st0" width="49.641" height="124.324"></rect>		</g>	</g>	<g>		<g>			<rect x="441.74" y="60.331" class="st0" width="49.641" height="124.324"></rect>		</g>	</g>	<g>		<g>			<path class="st0" d="M240.48,54.184c-43.937,0-71.231,26.19-71.231,68.353c0,41.98,25.331,66.057,69.5,66.057    c21.471,0,40.133-6.857,52.552-19.308c11.391-11.424,17.141-26.878,17.088-45.94C308.389,78.747,284.272,54.184,240.48,54.184z     M239.555,153.283c-6.251,0-20.791-3.233-20.791-33.178c0-26.753,13.026-30.746,20.791-30.746    c12.912,0,19.458,10.89,19.458,32.366C259.013,147.809,248.432,153.283,239.555,153.283z"></path>		</g>	</g>	<g>		<g>			<path class="st0" d="M643.779,149.39l-20.734,9.107v-3.595l2.522-43.134c0.56-6.47,0.841-12.701,0.841-18.692    c0-24.682-7.845-38.82-42.308-38.82c-4.763,0-12.328,1.198-22.135,3.834c-10.087,2.636-21.574,8.866-34.463,18.212    c-12.889,9.585-24.376,23.484-34.182,41.696l0.84,1.438l51.834-12.7c-3.362-9.107-5.043-16.774-5.043-23.244    c0-10.304,6.443-15.336,15.689-15.336c12.608,0,21.994,12.487,21.994,36.21l-34.041,11.742    c-29.419,11.742-48.752,27.053-48.752,47.181c0,15.576,13.169,25.64,32.502,25.64c22.695,0,39.644-12.939,50.572-33.788h1.401    c-0.28,1.677-0.28,3.834-0.28,6.95c0,19.41,5.185,26.599,18.634,26.599s22.415-8.866,40.066-30.673l6.164-7.428L643.779,149.39z     M578.074,146.994c-5.324,8.627-15.829,12.94-22.273,12.94c-5.884,0-12.328-4.313-12.328-13.18    c0-10.544,12.467-23.698,35.161-36.877L578.074,146.994z"></path>		</g>	</g>	<path class="st0" d="M445.823,47.201h41.477c2.245,0,4.064-1.82,4.064-4.064V23.362c0-2.245-1.82-4.065-4.065-4.065h-41.476  c-2.245,0-4.064,1.82-4.064,4.064v19.775C441.759,45.381,443.578,47.201,445.823,47.201z"></path>	<path class="st0" d="M1136.344,47.201h41.477c2.245,0,4.064-1.82,4.064-4.064V23.362c0-2.245-1.82-4.065-4.065-4.065h-41.476  c-2.245,0-4.064,1.82-4.064,4.064v19.775C1132.279,45.381,1134.099,47.201,1136.344,47.201z"></path>	<path class="st0" d="M164.294,112.696c-2.024-5.236-5.306-9.976-9.757-14.086c-4.553-4.216-10.606-7.917-17.988-11.007  c-7.579-3.171-16.944-5.939-27.808-8.225L83.973,74.34c-7.189-1.474-12.051-3.284-14.861-5.521  c-3.205-2.542-4.898-5.994-4.898-9.983c0-4.563,2.154-8.498,6.233-11.373c3.777-2.662,9.462-3.957,17.374-3.957  c7.277,0,13.069,1.452,17.22,4.319c3.664,2.534,6.436,6.747,8.263,12.546h50.319c0,0,0.426-22.024-18.708-37.548  c-0.938-0.761-1.931-1.491-2.952-2.203c-0.011-0.008-0.022-0.015-0.033-0.023c-0.664-0.462-1.338-0.918-2.037-1.359  c-0.047-0.03-0.09-0.062-0.138-0.092c-4.343-2.751-9.062-4.857-13.808-6.479c-0.093-0.032-0.185-0.065-0.277-0.097  c-0.853-0.288-1.706-0.564-2.558-0.821c-0.215-0.066-0.419-0.139-0.636-0.204c-0.439-0.131-0.904-0.245-1.352-0.37  c-0.072-0.02-0.144-0.039-0.216-0.059c-1.209-0.334-2.45-0.645-3.721-0.934c-0.247-0.057-0.492-0.112-0.737-0.167  c-0.533-0.116-1.06-0.236-1.602-0.345C101.14,6.861,89.627,7.424,89.627,7.424c-11.669,0-22.332,1.229-31.691,3.653  c-9.199,2.384-17.096,5.994-23.473,10.722c-6.292,4.663-11.212,10.448-14.625,17.194c-3.414,6.74-5.143,14.686-5.143,23.62  c0,13.804,4.37,24.519,13.362,32.754c9.151,8.389,24.294,14.689,44.992,18.727l25.089,4.801c7.063,1.492,11.875,3.412,14.708,5.873  c3.125,2.709,4.776,6.473,4.776,10.886c0,5.584-2.31,10.096-6.679,13.051c-4.021,2.721-9.896,4.041-17.962,4.041  c-9.774,0-17.291-2.059-22.336-6.114c-4.384-3.525-7.354-8.403-8.853-14.536H11.183c0.894,7.87,2.787,15.106,5.643,21.564  c3.265,7.394,8.08,13.753,14.309,18.905c6.286,5.189,14.296,9.23,23.811,12.009c9.691,2.823,21.272,4.256,34.422,4.256  c25.859,0,45.617-5.12,58.721-15.216c12.991-10.009,19.306-23.824,19.306-42.244C167.394,124.321,166.35,118.039,164.294,112.696z"></path>	<path class="st0" d="M394.123,138.55c-0.799,3.752-2.19,6.86-4.152,9.27c-2.801,3.438-6.902,5.178-12.189,5.178  c-6.414,0-11.568-2.794-14.9-8.078c-3.081-4.875-4.579-12.576-4.579-23.546c0-10.422,1.439-17.893,4.401-22.837  c3.242-5.419,8.367-8.283,14.819-8.283c5.13,0,9.065,1.667,11.694,4.955c1.724,2.158,3.037,4.911,3.918,8.213h44.06  c0,0-0.454-8.422-4.807-18.453c-2.551-5.878-6.153-11.161-10.692-15.702c-4.493-4.483-10.497-8.114-17.851-10.784  c-7.471-2.713-16.587-4.088-27.095-4.088c-20.69,0-37.064,5.979-48.663,17.765c-11.61,11.812-17.498,28.793-17.498,50.479  c0,9.709,1.329,18.789,3.951,26.999c2.567,8.048,6.583,15.033,11.938,20.759c5.345,5.727,12.22,10.276,20.435,13.523  c8.293,3.273,18.246,4.933,29.58,4.933c10.513,0,19.629-1.375,27.097-4.084c7.361-2.669,13.547-6.436,18.388-11.194  c4.849-4.761,8.69-10.528,11.415-17.128c2.28-5.54,3.918-11.544,4.883-17.896H394.123z"></path>	<path class="st0" d="M1112.562,66.078c-8.471-7.657-24.528-12.049-44.055-12.049c-56.064,0-58.598,31.645-59.945,44.299h40.811  c1.96-8.81,7.259-13.267,15.79-13.267c9.775,0,14.729,5.112,14.729,15.194v7.756l-4.498,0.527  c-13.439,1.565-35.932,4.18-51.395,11.508c-14.723,6.878-21.005,16.372-21.005,31.741c0,22.914,13.42,36.594,35.899,36.594  c17.044,0,28.015-4.78,36.68-15.984l5.6-7.236l2.359,19.496h40.453V104.42C1123.986,84.135,1120.79,73.391,1112.562,66.078z   M1079.892,134.347c0,14.291-8.313,23.524-21.178,23.524c-8.69,0-12.581-6.063-12.581-12.071c0-6.473,3.589-9.639,6.633-11.168  c4.992-2.45,13.775-4.681,22.919-5.822l4.207-0.526V134.347z"></path>	<path class="st0" d="M806.704,140.215c-4.99,4.586-11.57,6.908-19.559,6.908c-4.167,0-8.29-0.654-12.249-1.945  c-4.295-1.397-8.091-4.084-11.281-7.986c-3.075-3.752-5.529-8.923-7.293-15.362c-1.686-6.13-2.548-14.137-2.578-23.784  c0.029-9.646,0.892-17.654,2.578-23.784c1.764-6.439,4.218-11.61,7.293-15.362c3.19-3.902,6.986-6.589,11.281-7.986  c3.958-1.291,8.082-1.945,12.249-1.945c7.988,0,14.569,2.322,19.559,6.908c4.338,3.979,7.248,9.778,8.667,17.271h51.08  c-0.77-8.469-2.664-16.463-5.646-23.813c-3.39-8.356-8.422-15.706-14.958-21.85c-6.558-6.166-14.89-11.113-24.768-14.704  c-9.954-3.605-21.891-5.438-35.478-5.438c-15.099,0-28.258,2.198-39.111,6.535c-10.76,4.297-19.705,10.363-26.587,18.039  c-6.914,7.698-12.117,17.059-15.465,27.828c-3.397,10.919-5.12,23.129-5.12,36.287c0,0.676,0.024,1.342,0.033,2.015  c-0.009,0.672-0.033,1.338-0.033,2.015c0,13.157,1.723,25.367,5.12,36.287c3.348,10.769,8.551,20.13,15.465,27.828  c6.882,7.676,15.827,13.742,26.587,18.039c10.853,4.337,24.012,6.535,39.111,6.535c13.587,0,25.524-1.832,35.478-5.438  c9.877-3.591,18.209-8.539,24.768-14.704c6.537-6.144,11.568-13.494,14.958-21.85c2.982-7.35,4.876-15.344,5.646-23.813h-51.08  C813.952,130.437,811.043,136.237,806.704,140.215z"></path></g></svg>