<svg xmlns="http://www.w3.org/2000/svg" xmlns:xlink="http://www.w3.org/1999/xlink" id="Layer_1" x="0px" y="0px" viewBox="0 0 181.6 1308.2" style="enable-background:new 0 0 181.6 1308.2;" xml:space="preserve"><style type="text/css">	.st0{fill:#FFFFFF;}</style><g>	<g>		<g>			<path class="st0" d="M115.4,1303.7c11.7-5.3,17.3-15.5,17.3-31.4c0-16.4-5.3-28.6-17.1-39.6l-7-6.5h19.9V1179H4.3v48.6h64.1    c4.4,0,12.5,0.5,17.5,3.7c4.4,2.9,6.6,7.4,6.6,13.3c0,6.2-2.2,10.6-6.5,12.7c-3,1.7-7.4,2.5-14.1,2.5H4.3v48.4h79.9    C94.3,1308.2,106.9,1307.7,115.4,1303.7z"></path>		</g>	</g>	<g>		<g>			<path class="st0" d="M115.4,983.6c11.7-5.3,17.3-15.5,17.3-31.4c0-16.4-5.3-28.6-17.1-39.6l-7-6.5h68.9v-47.2H4.3v48.6h64.1    c4.4,0,12.5,0.5,17.5,3.7c4.4,2.9,6.6,7.4,6.6,13.3c0,6.2-2.2,10.6-6.5,12.7c-3,1.7-7.4,2.5-14.1,2.5H4.3v48.4h79.9    C94.3,988.1,106.9,987.6,115.4,983.6z"></path>		</g>	</g>	<g>		<g>			<rect x="4.3" y="634.4" class="st0" width="173.3" height="49.6"></rect>		</g>	</g>	<g>		<g>			<rect x="4.3" y="1121.1" class="st0" width="124.3" height="49.6"></rect>		</g>	</g>	<g>		<g>			<rect x="4.3" y="430.6" class="st0" width="124.3" height="49.6"></rect>		</g>	</g>	<g>		<g>			<path class="st0" d="M134.7,229.3c0-43.9-26.2-71.2-68.4-71.2c-42,0-66.1,25.3-66.1,69.5c0,21.5,6.9,40.1,19.3,52.6    c11.4,11.4,26.9,17.1,45.9,17.1C110.2,297.2,134.7,273.1,134.7,229.3z M35.6,228.4c0-6.3,3.2-20.8,33.2-20.8    c26.8,0,30.7,13,30.7,20.8c0,12.9-10.9,19.5-32.4,19.5C41.1,247.8,35.6,237.2,35.6,228.4z"></path>		</g>	</g>	<g>		<g>			<path class="st0" d="M39.5,632.6l-9.1-20.7H34l43.1,2.5c6.5,0.6,12.7,0.8,18.7,0.8c24.7,0,38.8-7.8,38.8-42.3    c0-4.8-1.2-12.3-3.8-22.1c-2.6-10.1-8.9-21.6-18.2-34.5c-9.6-12.9-23.5-24.4-41.7-34.2l-1.4,0.8l12.7,51.8c9.1-3.4,16.8-5,23.2-5    c10.3,0,15.3,6.4,15.3,15.7c0,12.6-12.5,22-36.2,22l-11.7-34c-11.7-29.4-27.1-48.8-47.2-48.8C10.1,484.7,0,497.8,0,517.2    c0,22.7,12.9,39.6,33.8,50.6v1.4c-1.7-0.3-3.8-0.3-6.9-0.3c-19.4,0-26.6,5.2-26.6,18.6s8.9,22.4,30.7,40.1l7.4,6.2L39.5,632.6z     M41.9,566.9c-8.6-5.3-12.9-15.8-12.9-22.3c0-5.9,4.3-12.3,13.2-12.3c10.5,0,23.7,12.5,36.9,35.2L41.9,566.9z"></path>		</g>	</g>	<path class="st0" d="M141.7,434.6v41.5c0,2.2,1.8,4.1,4.1,4.1h19.8c2.2,0,4.1-1.8,4.1-4.1v-41.5c0-2.2-1.8-4.1-4.1-4.1h-19.8  C143.5,430.6,141.7,432.4,141.7,434.6z"></path>	<path class="st0" d="M141.7,1125.2v41.5c0,2.2,1.8,4.1,4.1,4.1h19.8c2.2,0,4.1-1.8,4.1-4.1v-41.5c0-2.2-1.8-4.1-4.1-4.1h-19.8  C143.5,1121.1,141.7,1122.9,141.7,1125.2z"></path>	<path class="st0" d="M76.2,153.1c5.2-2,10-5.3,14.1-9.8c4.2-4.6,7.9-10.6,11-18c3.2-7.6,5.9-16.9,8.2-27.8l5-24.8  c1.5-7.2,3.3-12.1,5.5-14.9c2.5-3.2,6-4.9,10-4.9c4.6,0,8.5,2.2,11.4,6.2c2.7,3.8,4,9.5,4,17.4c0,7.3-1.5,13.1-4.3,17.2  c-2.5,3.7-6.7,6.4-12.5,8.3v50.3c0,0,22,0.4,37.5-18.7c0.8-0.9,1.5-1.9,2.2-3c0,0,0,0,0,0c0.5-0.7,0.9-1.3,1.4-2  c0,0,0.1-0.1,0.1-0.1c2.8-4.3,4.9-9.1,6.5-13.8c0-0.1,0.1-0.2,0.1-0.3c0.3-0.9,0.6-1.7,0.8-2.6c0.1-0.2,0.1-0.4,0.2-0.6  c0.1-0.4,0.2-0.9,0.4-1.4c0-0.1,0-0.1,0.1-0.2c0.3-1.2,0.6-2.4,0.9-3.7c0.1-0.2,0.1-0.5,0.2-0.7c0.1-0.5,0.2-1.1,0.3-1.6  c2.8-13.7,2.2-25.2,2.2-25.2c0-11.7-1.2-22.3-3.7-31.7c-2.4-9.2-6-17.1-10.7-23.5c-4.7-6.3-10.4-11.2-17.2-14.6  c-6.7-3.4-14.7-5.1-23.6-5.1c-13.8,0-24.5,4.4-32.8,13.4c-8.4,9.2-14.7,24.3-18.7,45L70,87c-1.5,7.1-3.4,11.9-5.9,14.7  c-2.7,3.1-6.5,4.8-10.9,4.8c-5.6,0-10.1-2.3-13.1-6.7c-2.7-4-4-9.9-4-18c0-9.8,2.1-17.3,6.1-22.3c3.5-4.4,8.4-7.4,14.5-8.9V0  C49,0.9,41.7,2.8,35.3,5.6C27.9,8.9,21.5,13.7,16.4,20c-5.2,6.3-9.2,14.3-12,23.8C1.5,53.5,0.1,65,0.1,78.2  c0,25.9,5.1,45.6,15.2,58.7c10,13,23.8,19.3,42.2,19.3C64.6,156.2,70.9,155.2,76.2,153.1z"></path>	<path class="st0" d="M50.4,382.9c-3.8-0.8-6.9-2.2-9.3-4.2c-3.4-2.8-5.2-6.9-5.2-12.2c0-6.4,2.8-11.6,8.1-14.9  c4.9-3.1,12.6-4.6,23.5-4.6c10.4,0,17.9,1.4,22.8,4.4c5.4,3.2,8.3,8.4,8.3,14.8c0,5.1-1.7,9.1-5,11.7c-2.2,1.7-4.9,3-8.2,3.9V426  c0,0,8.4-0.5,18.5-4.8c5.9-2.6,11.2-6.2,15.7-10.7c4.5-4.5,8.1-10.5,10.8-17.9c2.7-7.5,4.1-16.6,4.1-27.1c0-20.7-6-37.1-17.8-48.7  C105,305.3,88,299.4,66.3,299.4c-9.7,0-18.8,1.3-27,4c-8,2.6-15,6.6-20.8,11.9c-5.7,5.3-10.3,12.2-13.5,20.4  C1.7,344,0.1,354,0.1,365.3c0,10.5,1.4,19.6,4.1,27.1c2.7,7.4,6.4,13.5,11.2,18.4c4.8,4.8,10.5,8.7,17.1,11.4  c5.5,2.3,11.5,3.9,17.9,4.9L50.4,382.9L50.4,382.9z"></path>	<path class="st0" d="M122.9,1101.4c7.7-8.5,12-24.5,12-44.1c0-56.1-31.6-58.6-44.3-59.9v40.8c8.8,2,13.3,7.3,13.3,15.8  c0,9.8-5.1,14.7-15.2,14.7h-7.8l-0.5-4.5c-1.6-13.4-4.2-35.9-11.5-51.4c-6.9-14.7-16.4-21-31.7-21c-22.9,0-36.6,13.4-36.6,35.9  c0,17,4.8,28,16,36.7l7.2,5.6l-19.5,2.4v40.5h80.2C104.8,1112.8,115.5,1109.6,122.9,1101.4z M54.6,1068.7  c-14.3,0-23.5-8.3-23.5-21.2c0-8.7,6.1-12.6,12.1-12.6c6.5,0,9.6,3.6,11.2,6.6c2.4,5,4.7,13.8,5.8,22.9l0.5,4.2H54.6z"></path>	<path class="st0" d="M48.7,795.5c-4.6-5-6.9-11.6-6.9-19.6c0-4.2,0.7-8.3,1.9-12.2c1.4-4.3,4.1-8.1,8-11.3  c3.8-3.1,8.9-5.5,15.4-7.3c6.1-1.7,14.1-2.5,23.8-2.6c9.6,0,17.7,0.9,23.8,2.6c6.4,1.8,11.6,4.2,15.4,7.3c3.9,3.2,6.6,7,8,11.3  c1.3,4,1.9,8.1,1.9,12.2c0,8-2.3,14.6-6.9,19.6c-4,4.3-9.8,7.2-17.3,8.7v51.1c8.5-0.8,16.5-2.7,23.8-5.6c8.4-3.4,15.7-8.4,21.8-15  c6.2-6.6,11.1-14.9,14.7-24.8c3.6-10,5.4-21.9,5.4-35.5c0-15.1-2.2-28.3-6.5-39.1c-4.3-10.8-10.4-19.7-18-26.6  c-7.7-6.9-17.1-12.1-27.8-15.5c-10.9-3.4-23.1-5.1-36.3-5.1c-0.7,0-1.3,0-2,0c-0.7,0-1.3,0-2,0c-13.2,0-25.4,1.7-36.3,5.1  c-10.8,3.3-20.1,8.6-27.8,15.5c-7.7,6.9-13.7,15.8-18,26.6c-4.3,10.9-6.5,24-6.5,39.1c0,13.6,1.8,25.5,5.4,35.5  c3.6,9.9,8.5,18.2,14.7,24.8c6.1,6.5,13.5,11.6,21.9,15c7.4,3,15.3,4.9,23.8,5.6v-51.1C58.5,802.8,52.7,799.9,48.7,795.5z"></path></g></svg>