<svg xmlns="http://www.w3.org/2000/svg" xmlns:xlink="http://www.w3.org/1999/xlink" id="Layer_1" x="0px" y="0px" viewBox="0 0 1332.977 376.395" style="enable-background:new 0 0 1332.977 376.395;" xml:space="preserve"><style type="text/css">	.st0{fill:#FFFFFF;}	.st1{filter:url(#Adobe_OpacityMaskFilter);}	.st2{mask:url(#SVGID_1_);}	.st3{filter:url(#Adobe_OpacityMaskFilter_00000049185368307850239430000016261551634785254791_);}	.st4{mask:url(#SVGID_00000117668166825633786260000009472291725838027393_);}	.st5{filter:url(#Adobe_OpacityMaskFilter_00000008840769516032191100000016171471374975239862_);}	.st6{mask:url(#SVGID_00000119800169749496468440000004405145598210155665_);}	.st7{filter:url(#Adobe_OpacityMaskFilter_00000145037999581602567530000015835858281114094723_);}	.st8{mask:url(#SVGID_00000107567174632808756260000000893659620433104049_);}	.st9{filter:url(#Adobe_OpacityMaskFilter_00000130618179742403781700000008118533417177021118_);}	.st10{mask:url(#SVGID_00000129916958539378439700000008887774316797988770_);}	.st11{filter:url(#Adobe_OpacityMaskFilter_00000079443862595801123700000002943657288517086088_);}	.st12{mask:url(#SVGID_00000177471817729712358490000011196577566363643023_);}</style><g>	<g>		<g>			<path class="st0" d="M1304.577,75.657c-5.174-11.451-15.269-17.015-30.865-17.015c-16.062,0-28.048,5.176-38.867,16.777    l-6.368,6.832V62.741h-46.383v122.096h47.696v-62.975c0-4.296,0.467-12.234,3.633-17.187c2.847-4.296,7.229-6.472,13.022-6.472    c6.135,0,10.371,2.209,12.514,6.426c1.685,2.978,2.435,7.259,2.435,13.882v66.326h47.568v-78.51    C1308.962,96.443,1308.465,84.025,1304.577,75.657z"></path>		</g>		<g>			<path class="st0" d="M990.131,75.657c-5.174-11.451-15.269-17.015-30.864-17.015c-16.061,0-28.047,5.176-38.865,16.777    l-6.368,6.832V14.563H867.65v170.273h47.696v-62.975c0-4.296,0.467-12.23,3.631-17.187c2.848-4.296,7.23-6.472,13.024-6.472    c6.135,0,10.371,2.209,12.514,6.426c1.684,2.978,2.435,7.259,2.435,13.882v66.326h47.568v-78.51    C994.518,96.443,994.021,84.025,990.131,75.657z"></path>		</g>		<g>			<rect x="647.168" y="14.571" class="st0" width="48.761" height="170.266"></rect>		</g>		<g>			<rect x="1125.165" y="62.722" class="st0" width="48.759" height="122.114"></rect>		</g>		<g>			<rect x="446.919" y="62.722" class="st0" width="48.759" height="122.114"></rect>		</g>		<g>			<path class="st0" d="M249.236,56.684c-43.156,0-69.965,25.725-69.965,67.138c0,41.234,24.88,64.882,68.264,64.882    c21.089,0,39.42-6.735,51.618-18.965c11.189-11.221,16.837-26.4,16.785-45.124C315.937,80.811,292.249,56.684,249.236,56.684z     M248.327,154.023c-6.14,0-20.421-3.175-20.421-32.588c0-26.278,12.794-30.2,20.421-30.2c12.683,0,19.112,10.697,19.112,31.791    C267.439,148.646,257.046,154.023,248.327,154.023z"></path>		</g>		<g>			<path class="st0" d="M645.366,150.198l-20.365,8.945v-3.531l2.477-42.367c0.55-6.355,0.826-12.475,0.826-18.359    c0-24.243-7.705-38.13-41.556-38.13c-4.678,0-12.109,1.177-21.741,3.766c-9.907,2.589-21.191,8.709-33.85,17.888    c-12.66,9.415-23.943,23.066-33.575,40.955l0.825,1.412l50.913-12.474c-3.303-8.945-4.954-16.476-4.954-22.831    c0-10.121,6.329-15.064,15.41-15.064c12.384,0,21.603,12.264,21.603,35.566l-33.436,11.533    c-28.896,11.533-47.886,26.572-47.886,46.343c0,15.299,12.935,25.185,31.924,25.185c22.291,0,38.94-12.709,49.673-33.187h1.376    c-0.275,1.647-0.275,3.765-0.275,6.826c0,19.064,5.093,26.126,18.302,26.126c13.21,0,22.016-8.709,39.354-30.127l6.055-7.296    L645.366,150.198z M580.829,147.845c-5.229,8.474-15.547,12.71-21.877,12.71c-5.779,0-12.109-4.236-12.109-12.945    c0-10.357,12.245-23.277,34.536-36.222L580.829,147.845z"></path>		</g>		<path class="st0" d="M450.929,49.826h40.739c2.205,0,3.992-1.787,3.992-3.992V26.411c0-2.205-1.787-3.992-3.992-3.992h-40.739   c-2.205,0-3.992,1.787-3.992,3.992v19.423C446.937,48.038,448.724,49.826,450.929,49.826z"></path>		<path class="st0" d="M1129.175,49.826h40.739c2.205,0,3.992-1.787,3.992-3.992V26.411c0-2.205-1.787-3.992-3.992-3.992h-40.739   c-2.205,0-3.992,1.787-3.992,3.992v19.423C1125.183,48.038,1126.971,49.826,1129.175,49.826z"></path>		<path class="st0" d="M174.404,114.157c-1.988-5.143-5.212-9.798-9.583-13.836c-4.472-4.141-10.418-7.776-17.668-10.811   c-7.444-3.115-16.643-5.833-27.314-8.078l-24.327-4.949c-7.062-1.447-11.837-3.225-14.597-5.423   c-3.148-2.496-4.811-5.887-4.811-9.806c0-4.482,2.116-8.347,6.122-11.17c3.71-2.615,9.294-3.886,17.065-3.886   c7.148,0,12.837,1.426,16.914,4.242c3.599,2.489,6.322,6.627,8.116,12.323h49.425c0,0,0.419-21.633-18.375-36.881   c-0.921-0.747-1.897-1.464-2.899-2.163c-0.011-0.008-0.022-0.015-0.033-0.023c-0.652-0.454-1.314-0.902-2-1.335   c-0.047-0.03-0.089-0.061-0.136-0.091c-4.266-2.702-8.9-4.771-13.562-6.363c-0.091-0.032-0.181-0.064-0.272-0.095   c-0.837-0.282-1.675-0.554-2.512-0.807c-0.211-0.065-0.412-0.137-0.625-0.2c-0.431-0.129-0.888-0.24-1.328-0.363   c-0.071-0.019-0.141-0.038-0.212-0.058c-1.188-0.328-2.406-0.634-3.655-0.917c-0.242-0.056-0.483-0.11-0.724-0.164   c-0.523-0.114-1.041-0.232-1.574-0.339c-13.464-2.761-24.773-2.208-24.773-2.208c-11.462,0-21.935,1.207-31.128,3.588   c-9.035,2.342-16.792,5.887-23.056,10.531c-6.18,4.58-11.013,10.262-14.366,16.889c-3.353,6.62-5.052,14.425-5.052,23.2   c0,13.559,4.292,24.083,13.124,32.172c8.989,8.24,23.862,14.428,44.192,18.394l24.643,4.716   c6.937,1.466,11.664,3.351,14.446,5.769c3.069,2.661,4.691,6.358,4.691,10.693c0,5.485-2.269,9.917-6.56,12.819   c-3.949,2.672-9.72,3.969-17.643,3.969c-9.601,0-16.984-2.022-21.939-6.006c-4.306-3.462-7.223-8.254-8.696-14.277H24.015   c0.878,7.73,2.737,14.838,5.542,21.181c3.207,7.263,7.936,13.508,14.055,18.569c6.174,5.097,14.042,9.066,23.388,11.796   c9.519,2.773,20.894,4.181,33.81,4.181c25.399,0,44.806-5.029,57.677-14.945c12.76-9.831,18.963-23.401,18.963-41.493   C177.449,125.576,176.424,119.405,174.404,114.157z"></path>		<path class="st0" d="M400.148,139.551c-0.785,3.685-2.151,6.738-4.079,9.105c-2.751,3.376-6.779,5.086-11.973,5.086   c-6.3,0-11.363-2.744-14.635-7.935c-3.026-4.788-4.497-12.352-4.497-23.127c0-10.237,1.414-17.575,4.323-22.431   c3.184-5.323,8.218-8.135,14.556-8.135c5.039,0,8.904,1.638,11.486,4.867c1.693,2.119,2.983,4.824,3.848,8.067h43.276   c0,0-0.446-8.273-4.722-18.125c-2.506-5.773-6.043-10.962-10.502-15.423c-4.413-4.404-10.31-7.97-17.534-10.592   c-7.338-2.665-16.292-4.016-26.613-4.016c-20.323,0-36.405,5.872-47.798,17.449c-11.404,11.602-17.187,28.282-17.187,49.581   c0,9.536,1.305,18.455,3.881,26.519c2.522,7.905,6.466,14.766,11.725,20.39c5.25,5.625,12.003,10.093,20.071,13.283   c8.146,3.215,17.921,4.845,29.054,4.845c10.326,0,19.28-1.351,26.615-4.012c7.23-2.622,13.306-6.322,18.061-10.995   c4.763-4.677,8.536-10.341,11.212-16.824c2.239-5.442,3.848-11.339,4.797-17.578H400.148z"></path>		<path class="st0" d="M1105.816,68.367c-8.32-7.521-24.092-11.835-43.272-11.835c-55.067,0-57.557,31.083-58.879,43.511h40.085   c1.925-8.653,7.13-13.031,15.509-13.031c9.601,0,14.468,5.021,14.468,14.924v7.618l-4.418,0.517   c-13.2,1.537-35.293,4.105-50.481,11.303c-14.461,6.756-20.632,16.081-20.632,31.177c0,22.506,13.182,35.943,35.261,35.943   c16.741,0,27.517-4.695,36.028-15.7l5.5-7.108l2.317,19.149h39.734v-78.809C1117.037,86.103,1113.898,75.551,1105.816,68.367z    M1073.727,135.423c0,14.037-8.166,23.106-20.802,23.106c-8.536,0-12.357-5.955-12.357-11.857c0-6.358,3.525-9.468,6.515-10.969   c4.903-2.407,13.53-4.597,22.511-5.718l4.132-0.517V135.423z"></path>		<path class="st0" d="M805.396,141.187c-4.901,4.504-11.365,6.785-19.211,6.785c-4.093,0-8.143-0.643-12.031-1.911   c-4.219-1.372-7.947-4.012-11.081-7.844c-3.021-3.685-5.431-8.764-7.164-15.089c-1.656-6.021-2.503-13.886-2.532-23.361   c0.029-9.475,0.876-17.34,2.532-23.361c1.733-6.325,4.143-11.404,7.164-15.089c3.134-3.833,6.862-6.472,11.081-7.844   c3.888-1.268,7.938-1.911,12.031-1.911c7.846,0,14.31,2.281,19.211,6.785c4.261,3.908,7.119,9.605,8.512,16.964h50.172   c-0.756-8.319-2.617-16.17-5.546-23.39c-3.33-8.207-8.272-15.427-14.693-21.461c-6.442-6.056-14.625-10.915-24.327-14.443   c-9.777-3.541-21.502-5.341-34.847-5.341c-14.831,0-27.756,2.159-38.416,6.419c-10.569,4.22-19.355,10.179-26.114,17.718   c-6.791,7.561-11.901,16.756-15.19,27.333c-3.337,10.725-5.029,22.718-5.029,35.642c0,0.664,0.023,1.318,0.033,1.979   c-0.009,0.66-0.033,1.315-0.033,1.979c0,12.923,1.692,24.916,5.029,35.642c3.289,10.578,8.399,19.773,15.19,27.333   c6.759,7.539,15.545,13.498,26.114,17.718c10.66,4.26,23.585,6.419,38.416,6.419c13.345,0,25.071-1.799,34.847-5.341   c9.702-3.527,17.886-8.387,24.327-14.443c6.42-6.034,11.363-13.254,14.693-21.461c2.929-7.219,4.79-15.071,5.546-23.39h-50.172   C812.514,131.582,809.657,137.279,805.396,141.187z"></path>	</g>	<g>		<path class="st0" d="M1304.986,201.296v161.007h-82.387c-21.927,0-35.617-1.709-43.149-5.409   c-12.37-5.747-19.755-18.18-19.755-33.259c0-16.84,7.513-27.142,25.12-34.446l10.024-4.159l-10.598-2.334   c-19.879-4.379-29.542-16.361-29.542-36.631c0-14.587,6.532-27.595,17.934-35.698c9.101-6.528,22.375-9.071,47.343-9.071H1304.986    M1226.221,265.792h25.479h3.417v-3.417v-20.918v-3.417h-3.417h-25.229c-13.6,0-19.404,4.225-19.404,14.126   C1207.067,264.38,1217.998,265.792,1226.221,265.792 M1225.971,325.682h25.729h3.417v-3.417v-18.801v-3.417h-3.417h-25.479   c-6.989,0-16.281,1.361-16.281,13.129C1209.939,321.474,1215.333,325.682,1225.971,325.682 M1308.403,197.879h-88.427   c-24.73,0-39.093,2.366-49.334,9.712c-11.74,8.343-19.359,22.039-19.359,38.474c0,21.665,10.742,35.236,32.224,39.968   c-20.108,8.342-27.228,20.669-27.228,37.602c0,17.058,8.868,30.381,21.732,36.357c8.868,4.358,24.355,5.727,44.588,5.727h85.804   V197.879L1308.403,197.879z M1226.221,262.375c-11.865,0-15.737-3.361-15.737-10.209c0-6.227,2.123-10.709,15.987-10.709h25.229   v20.918H1226.221L1226.221,262.375z M1225.971,322.265c-9.242,0-12.615-3.113-12.615-9.089c0-6.101,2.623-9.712,12.865-9.712   h25.479v18.801H1225.971L1225.971,322.265z"></path>		<path class="st0" d="M1143.617,201.421v118.673h-44.5v-13.89v-12.865l-6.383,11.17c-6.201,10.851-16.951,17.329-28.757,17.329   c-2.535,0-4.135-0.117-6.825-0.737v-38.471c3.68,1.172,6.888,1.592,11.196,1.592c9.577,0,16.953-2.861,21.893-8.47   c5.53-6.11,6.503-13.678,6.503-27.32v-47.01H1143.617 M1147.034,198.004h-53.706v50.427c0,13.323-0.999,19.922-5.62,25.027   c-4.496,5.105-11.241,7.346-19.359,7.346c-5.37,0-8.743-0.623-14.613-3.113v46.069c4.621,1.245,6.619,1.494,10.241,1.494   c14.363,0,25.604-8.342,31.723-19.05v17.307h51.333V198.004L1147.034,198.004z"></path>		<path class="st0" d="M887.897,201.209l38.264,118.673h-50.272l-2.405-10.797c-4.519-20.271-9.192-41.232-13.602-62.193   l-3.655-17.372l-3.054,17.487c-3.664,20.975-7.269,35.909-13.243,60.651c-0.925,3.829-1.904,7.885-2.946,12.223h-47.363   l37.082-118.673H887.897 M890.386,197.793h-66.195L784.973,323.3h54.704c8.119-33.867,12.49-50.676,16.861-75.703   c5.371,25.525,10.991,50.427,16.611,75.703h57.703L890.386,197.793L890.386,197.793z"></path>		<path class="st0" d="M726.619,198.429c42.255,0,65.526,22.418,65.526,63.123c0,38.346-24.544,63.124-62.529,63.124   c-41.816,0-63.5-23.827-64.491-70.838h76.481h3.67l-0.262-3.66c-1.298-18.158-13.734-20.118-19.02-20.118   c-4.68,0-12.575,1.685-16.122,12.225l-39.984-12.223C681.802,209.068,700.868,198.429,726.619,198.429 M726.37,295.89   c5.916,0,16.184-2.257,18.49-17.372l0.6-3.932h-3.978h-29.35h-3.992l0.617,3.945C710.48,289.563,716.9,295.89,726.37,295.89    M726.619,195.012c-31.723,0-50.707,15.213-61.698,37.104l47.336,14.47c1.998-9.77,7.618-13.11,13.739-13.11   c6.37,0,14.613,2.969,15.612,16.945h-79.934c0,48.607,21.232,77.672,67.943,77.672c39.343,0,65.946-26.097,65.946-66.541   C795.562,219.501,771.083,195.012,726.619,195.012L726.619,195.012z M741.482,278.002c-1.623,10.636-7.743,14.471-15.112,14.471   c-6.995,0-12.614-4.082-14.238-14.471H741.482L741.482,278.002z"></path>		<path class="st0" d="M633.904,201.084v161.007h-82.387c-21.928,0-35.617-1.709-43.149-5.409   c-12.37-5.747-19.755-18.18-19.755-33.259c0-16.84,7.513-27.142,25.12-34.446l10.024-4.159l-10.598-2.334   c-19.879-4.379-29.542-16.361-29.542-36.631c0-14.587,6.532-27.596,17.934-35.698c9.101-6.528,22.375-9.071,47.343-9.071H633.904    M555.138,265.581h25.479h3.417v-3.417v-20.918v-3.417h-3.417h-25.228c-13.601,0-19.404,4.225-19.404,14.126   C535.984,264.168,546.916,265.581,555.138,265.581 M554.889,325.471h25.728h3.417v-3.417v-18.801v-3.417h-3.417h-25.479   c-6.989,0-16.281,1.361-16.281,13.128C538.857,321.263,544.251,325.471,554.889,325.471 M637.32,197.668h-88.427   c-24.73,0-39.093,2.366-49.335,9.712c-11.74,8.343-19.359,22.039-19.359,38.474c0,21.665,10.742,35.236,32.224,39.968   c-20.108,8.342-27.228,20.669-27.228,37.602c0,17.058,8.868,30.381,21.732,36.357c8.868,4.358,24.355,5.727,44.589,5.727h85.804   V197.668L637.32,197.668z M555.138,262.164c-11.865,0-15.737-3.361-15.737-10.209c0-6.227,2.124-10.709,15.987-10.709h25.228   v20.918H555.138L555.138,262.164z M554.889,322.054c-9.243,0-12.615-3.113-12.615-9.089c0-6.101,2.623-9.712,12.865-9.712h25.479   v18.801H554.889L554.889,322.054z"></path>		<path class="st0" d="M472.536,201.084v115.561h-46.122V201.084H472.536 M472.536,335.681v26.411h-46.122v-26.411H472.536    M475.952,197.668h-52.956v122.394h52.956V197.668L475.952,197.668z M475.952,332.264h-52.956v33.244h52.956V332.264   L475.952,332.264z"></path>		<path class="st0" d="M362.422,198.429c21.463,0,41.442,7.414,55.359,20.439l-21.36,23.936c-7.672-9.433-19.695-15.34-31.75-15.34   c-11.399,0-12.285,6.495-12.285,8.486c0,6.223,4.907,8.709,10.158,10.45l18.886,6.6c21.341,7.263,31.281,18.076,31.281,34.028   c0,24.278-19.456,37.648-54.784,37.648c-19.085,0-37.189-6.132-50.242-16.919l20.644-23.31   c7.832,8.181,17.596,12.969,26.724,12.969c9.947,0,12.035-4.891,12.035-8.993c0-6.115-4.972-7.9-14.876-11.454l-16.244-5.833   c-19.652-7.003-29.205-17.725-29.205-32.777C306.763,214.475,329.131,198.429,362.422,198.429 M362.422,195.012   c-33.847,0-59.076,16.223-59.076,43.346c0,16.604,10.492,28.518,31.475,35.995l16.237,5.83   c10.241,3.676,12.614,4.816,12.614,8.239c0,3.168-1.749,5.577-8.618,5.577c-8.368,0-18.609-4.816-26.727-14.702l-25.48,28.771   c13.614,12.548,33.848,20.026,55.081,20.026c41.965,0,58.201-18.124,58.201-41.065c0-19.138-13.114-30.292-33.597-37.263   l-18.86-6.591c-6.495-2.154-7.868-4.309-7.868-7.225c0-2.661,2.248-5.069,8.868-5.069c11.74,0,24.354,6.211,31.474,17.364   l26.353-29.532C407.261,202.997,384.654,195.012,362.422,195.012L362.422,195.012z"></path>		<path class="st0" d="M235.899,198.429c41.482,0,65.273,22.615,65.273,62.048c0,39.6-25.634,64.2-66.898,64.2   c-41.131,0-63.782-23.07-63.782-64.969c-0.049-17.895,5.353-32.41,16.055-43.141C198.212,204.87,215.738,198.429,235.899,198.429    M235.142,291.497c7.247,0,19.404-3.734,19.404-28.741c0-9.327-1.891-31.022-19.404-31.022c-15.003,0-18.153,16.043-18.153,29.501   C216.99,281.316,223.097,291.497,235.142,291.497 M235.899,195.012c-36.103,0-68.945,20.26-68.824,64.705   c0,43.432,24.233,68.376,67.199,68.376c42.714,0,70.315-25.324,70.315-67.617C304.589,218.691,278.865,195.012,235.899,195.012   L235.899,195.012z M235.142,288.081c-8.862,0-14.736-7.217-14.736-26.844c0-18.613,5.622-26.085,14.736-26.085   c9.376,0,15.987,8.231,15.987,27.605C251.13,281.116,244.267,288.081,235.142,288.081L235.142,288.081z"></path>		<path class="st0" d="M159.293,201.296v118.775h-44.368v-11.917v-8.676l-5.916,6.346c-10.324,11.075-21.765,16.014-37.096,16.014   c-14.897,0-24.542-5.319-29.502-16.296c-3.699-7.956-4.173-19.799-4.173-29.227v-74.899l45.499-0.111v63.404   c0,6.242,0.701,10.294,2.273,13.116c2.106,4.078,6.103,6.146,11.883,6.146c5.487,0,9.637-2.062,12.367-6.178   c2.97-4.65,3.414-12.195,3.414-16.279v-60.218H159.293 M162.71,197.879h-52.453v63.635c0,6.134-0.999,11.5-2.876,14.439   c-2.119,3.195-5.248,4.6-9.487,4.6c-4.128,0-7.247-1.15-8.872-4.344c-1.373-2.428-1.867-6.389-1.867-11.501v-66.701v-0.128   l-52.332,0.128v78.308c0,12.139,0.868,22.873,4.491,30.667c5.37,11.884,16.109,18.273,32.6,18.273   c17.239,0,29.35-6.111,39.595-17.1v15.334h51.202V197.879L162.71,197.879z"></path>		<path class="st0" d="M1025.127,198.429c17.426,0,28.686,8.6,28.686,21.909c0,16.621-15.451,31.222-45.93,43.4l-24.165,8.335   c24.496-15.574,29.88-27.732,29.88-35.404c0-10.675-8.034-16.435-15.594-16.435c-5.408,0-12.563,2.449-18.359,7.094   C990.438,208.406,1006.11,198.429,1025.127,198.429 M955.662,198.665c9.721,0,14.988,3.642,14.988,22.856   c0,2.859,0,4.925-0.23,6.302l-0.665,3.98h4.035h1.326c-0.729,0.896-1.406,1.842-2.02,2.836l-0.495,0.801l-0.014,0.941   l-0.553,36.662l-0.091,6.04l0.092-0.054c0.146,28.516,13.055,38.693,25.14,38.693c1.209,0,2.371-0.076,3.482-0.226   c-3.379,1.508-6.581,2.655-9.628,3.451c-8.805,2.367-16.254,3.67-20.977,3.67c-15.269,0-25.468-2.932-31.179-8.962   c-4.975-5.253-7.193-13.261-7.193-25.965c0-5.793,0.275-11.906,0.824-18.263l2.491-42.605l0.006-0.1v-0.1v-3.55v-5.232   l-4.791,2.104l-10.568,4.642C936.643,205.668,944.379,198.665,955.662,198.665 M1053.953,268.381   c-8.73,14.99-18.813,26.79-30.002,35.111c-4.09,2.966-7.969,5.566-11.657,7.811c2.456-3.099,3.796-7.221,3.796-12.146   c0-5.902-1.286-12.648-3.924-20.538L1053.953,268.381 M1025.127,195.012c-22.417,0-39.159,12.781-49.952,33.374h-1.384   c0.277-1.657,0.277-3.787,0.277-6.865c0-19.172-5.121-26.273-18.405-26.273s-22.14,8.758-39.575,30.297l-6.088,7.337l1.107,1.184   l20.48-8.995v3.55l-2.491,42.605c-0.554,6.391-0.83,12.545-0.83,18.463c0,24.38,7.749,38.344,41.789,38.344   c4.705,0,12.177-1.183,21.863-3.787c9.963-2.603,21.31-8.758,34.04-17.989c12.731-9.468,24.077-23.196,33.764-41.185l-0.83-1.42   l-51.199,12.544c3.321,8.995,4.982,16.569,4.982,22.959c0,10.178-6.364,15.148-15.497,15.148   c-12.454,0-21.724-12.334-21.724-35.766l33.624-11.598c29.059-11.598,48.155-26.721,48.155-46.603   C1057.23,204.953,1044.223,195.012,1025.127,195.012L1025.127,195.012z M975.452,273.095l0.553-36.662   c5.258-8.521,15.635-12.782,22-12.782c5.812,0,12.177,4.26,12.177,13.018C1010.182,247.085,997.868,260.077,975.452,273.095   L975.452,273.095z"></path>	</g></g></svg>