<svg xmlns="http://www.w3.org/2000/svg" xmlns:xlink="http://www.w3.org/1999/xlink" id="Layer_1" x="0px" y="0px" viewBox="0 0 100.1 27.9" style="enable-background:new 0 0 100.1 27.9;" xml:space="preserve"><style type="text/css">	.st0{fill:#B7B7B7;}	.st1{fill:#939393;}	.st2{fill:#FFFFFF;}</style><path class="st0" d="M11.1,10.4V9.6c-0.3-0.1-0.6-0.1-0.9-0.1c-2.9,0-5.4,1.9-6.3,4.6c-0.9,2.7,0.2,5.7,2.5,7.3 c-1.8-1.9-2.2-4.6-1.2-7C6.2,12,8.6,10.4,11.1,10.4z"></path><path class="st1" d="M21.8,7.6v2.8c-1.8,0-3.5-0.6-4.9-1.6V16c0,3.6-2.9,6.6-6.6,6.6c-1.3,0-2.7-0.4-3.8-1.2c1.8,2,4.7,2.6,7.2,1.6 c2.5-1,4.2-3.4,4.2-6.1V9.7c1.5,1,3.2,1.6,5,1.6V7.7C22.4,7.7,22.1,7.7,21.8,7.6z"></path><path class="st2" d="M16.8,16V8.8c1.4,1,3.2,1.6,5,1.6V7.6c-1-0.2-2-0.8-2.7-1.6c-1.1-0.7-1.9-1.9-2.2-3.2h-2.6v14.3 c-0.1,1.3-0.9,2.4-2.1,2.8c-1.2,0.4-2.5-0.1-3.3-1.1c-1.2-0.6-1.8-2-1.5-3.4c0.3-1.3,1.5-2.3,2.9-2.3c0.3,0,0.6,0,0.9,0.1v-2.8 c-2.6,0-4.9,1.6-5.9,4s-0.5,5.2,1.3,7c1.1,0.8,2.4,1.1,3.8,1.1C13.9,22.6,16.8,19.7,16.8,16z"></path><g transform="translate(8.468 1.868) scale(.26698)">	<path class="st2" d="M96,77.6H81.9V31.7H67.8l0-12.6h43.6l-4,12.6H96L96,77.6L96,77.6z M211,77.6h-14.1V31.7h-14.2l0-12.6h44.6  l-4,12.6H211V77.6z M114,37.7h14v39.9h-13.9L114,37.7z M151.6,58.2l-4.1,4v15.4h-13.9V18.9h13.9v27.3l13.8-13.5h16.6l-17.5,17  l19.6,28h-15.4C164.7,77.6,151.6,58.2,151.6,58.2z M299.4,58.2l-4,4v15.4h-14l-0.1-58.7h14.1v27.3l13.8-13.5h16.6l-17.5,17l19.5,28  h-15.4C312.4,77.6,299.4,58.2,299.4,58.2z"></path>	<circle class="st2" cx="121" cy="26.1" r="7"></circle>	<path class="st0" d="M225.4,53.7c0-12.5,9.6-22.8,22-23.8h-2.1c-12.6,0.7-22.5,11.2-22.5,23.8s9.9,23.1,22.5,23.9h2.1  C235,76.7,225.4,66.2,225.4,53.7z"></path>	<path class="st1" d="M252.9,29.9h-2.1c12.4,1,21.9,11.4,21.9,23.8s-9.5,22.8-21.9,23.8h2.1c13.2,0,23.9-10.7,23.9-23.9  s-10.7-23.9-23.9-23.9C252.9,29.7,252.9,29.9,252.9,29.9z"></path>	<path class="st2" d="M249.1,65.4c-6.4,0-11.6-5.2-11.6-11.6s5.2-11.6,11.6-11.6c6.4,0,11.6,5.2,11.6,11.6  C260.7,60.2,255.5,65.4,249.1,65.4z M249.1,29.9c-13.2,0-23.9,10.7-23.9,23.9s10.7,23.9,23.9,23.9c13.2,0,23.9-10.7,23.9-23.9  c0-6.3-2.5-12.4-7-16.9S255.5,29.9,249.1,29.9z"></path></g></svg>